<svg version="1" xmlns="http://www.w3.org/2000/svg" width="600" height="600" viewBox="0 0 450.000000 450.000000"><path d="M207.4 1C110.1 9.1 29 78.6 6.6 173 2.1 191.8.7 204.1.7 225s1.4 33.2 5.9 52c13.1 55.5 47.9 104.8 95.9 136.3 11.9 7.7 36.4 19.7 49.5 24.1 25.2 8.5 46 11.9 73 11.9 36.5 0 66-6.9 98.5-22.8 24.7-12.1 44.2-26.2 62.5-45.1 33.5-34.6 54.1-76.8 61.6-125.9 2.3-14.9 2.3-46.1 0-61-2.2-14.4-5.8-29.5-10.2-42.5-4.4-13.1-16.4-37.6-24.1-49.5-35.6-54.3-93-90.8-157.3-99.9C242.4.7 220.2-.1 207.4 1zm42.2 143.9c19.8 5.1 36.5 18.6 44.6 35.8 3 6.4 6 16.8 5 17.8-.3.3-6.5.5-13.8.5h-13.2l-3.5-7.3c-10.4-22-36.1-31.1-61-21.7-11.1 4.2-21.8 15.6-26.6 28.5-2.6 7-5.1 21.9-5.1 30.5.1 15.4 4.5 32.8 10.9 42.8 12.1 18.9 36.3 26.8 58.6 19.2 7.6-2.6 16.9-9.5 21.2-15.7 3.9-5.7 7.3-15.8 7.3-21.9V249l-21.7-.2-21.8-.3-.3-10.7c-.3-10.5-.2-10.8 2-11.3 1.3-.3 17.2-.4 35.3-.3l33 .3.3 14.7c.2 11.7-.1 16.5-1.8 23.8-3.4 15.7-11.2 29.2-21.7 37.4-7.8 6.2-13.4 9-23.8 12.2-8.3 2.6-10.3 2.8-25.5 2.8s-17.2-.2-25.5-2.8c-13.3-4.1-19.9-8-29.6-17.6-13.5-13.3-20.2-27.5-23.5-50-2.8-19.6-.4-43.7 6.1-59 5.5-13 15.6-25.8 26.3-33.2 8.2-5.7 21-10.3 33.7-12.2 6.3-.9 27.2.4 34.1 2.3z"/></svg>